<?xml version="1.0" encoding="UTF-8"?><svg id="Layer_2" xmlns="http://www.w3.org/2000/svg" viewBox="0 0 399.22 519.5"><defs><style>.cls-1,.cls-2,.cls-3{opacity:1;}.cls-4,.cls-2{stroke:#38a3a5;}.cls-4,.cls-2,.cls-3{fill:#38a3a5;stroke-miterlimit:10;}.cls-3{stroke:#38a3a5;}</style></defs><g id="Layer_1-2"><path class="cls-2" d="M250.9,413.34c-.72,.02-1.45,.03-2.18,.03s-1.46-.01-2.18-.03c-40.41-1.15-72.82-34.28-72.82-74.97s33.58-75,75-75,75,33.58,75,75-32.41,73.82-72.82,74.97Zm.72-224.93c-.96-.03-1.93-.04-2.9-.04s-1.94,.01-2.9,.04c-26.23,.5-50.82,7.73-72.1,20.04V49.49C173.72,9.3,141.14,.5,100.95,.5c-.56,0-1.1,.02-1.65,.04V351.68c1.7,19.34,7.08,37.63,15.42,54.16,17.3,34.3,47.39,61.05,84,73.99v-.3c0-27.61,22.39-50,50-50s50,22.39,50,50v.31c58.26-20.6,100-76.16,100-141.47,0-81.87-65.6-148.41-147.1-149.96Z"/><circle class="cls-3" cx="248.72" cy="481.5" r="37.5"/><g class="cls-1"><path class="cls-4" d="M25.12,158.89c-.01-7.09-.02-14.18-.02-21.27,0,7.09,0,14.18,.01,21.27v11.44c.01-3.82,.01-7.63,.01-11.44Z"/><path class="cls-4" d="M86.39,224.32c.1,15.55-5.01,28.59-16.72,38.8-8.03,7.01-11.16,15.52-10.85,26.16,1.33,44.89,2.25,89.78,3.32,134.67,.29,12.1,.78,24.19,.86,36.29,.07,10.3-7.26,18.34-17.37,19.67-9.24,1.22-18.49-4.92-21.13-14.18-.53-1.89-.75-3.94-.71-5.9,.64-29.31,1.35-58.61,2.04-87.92h.11c.68-28.68,1.38-57.36,2.05-86.04,.21-8.95-3.42-16.17-10.09-21.98-8.84-7.7-14.8-17.11-16.72-28.8-.53-3.17-.65-6.45-.65-9.68-.05-34.93-.03-69.86-.03-104.79v-.37c.03-5.64,2.16-8.56,6.14-8.43,3.81,.12,5.94,3.09,5.94,8.38v83.09c0,7.73,.07,15.47-.01,23.2-.11,10.59,3.95,19.27,11.42,26.67,3.87,3.84,7.67,7.9,10.68,12.41,4.4,6.59,5.68,14.24,5.48,22.13-.95,36.54-1.88,73.07-2.8,109.61-.52,20.7-1.07,41.4-1.51,62.1-.13,6.36,5.27,10.27,10.66,7.83,3.31-1.5,4.62-4.23,4.52-7.87-.41-15.96-.7-31.92-1.1-47.88-.64-25.94-1.32-51.88-1.99-77.81-.38-14.59-.54-29.19-1.22-43.77-.64-13.81,3.48-25.51,13.93-34.74,6.74-5.96,11.66-12.97,13.07-22.02,.44-2.82,.5-5.71,.5-8.57,.03-34.55,.02-69.11,.04-103.66,0-1.49-.06-3.04,.32-4.45,.8-2.97,2.89-4.78,6-4.59,3.22,.19,5.3,2.04,5.62,5.42,.13,1.36,.12,2.74,.12,4.11,0,34.3-.15,68.61,.08,102.91Z"/><path class="cls-4" d="M37.24,195.88c0,1,.04,2-.01,2.99-.2,4.23-2.78,7.08-6.27,6.96-3.42-.11-5.79-2.72-5.81-6.92-.06-9.53-.05-19.05-.04-28.58v-11.44c-.01-7.09-.01-14.18-.01-21.27,0-5.88,0-11.75,.02-17.63,0-4.64,1.73-7.07,5.07-7.5,3.67-.48,6.5,1.71,6.96,5.6,.21,1.85,.09,3.74,.09,5.61,.01,24.06,.01,48.12,0,72.18Z"/><path class="cls-4" d="M61.71,196.65c0,6.13-1.88,9.04-5.86,9.18-4.07,.14-6.28-3.08-6.28-9.19v-37.78c0-12.96-.02-25.93,.01-38.89,.01-4.68,1.97-7.24,5.54-7.51,3.33-.26,5.82,1.61,6.37,4.92,.22,1.34,.21,2.73,.21,4.1,.01,25.06,.01,50.11,.01,75.17Z"/></g></g></svg>